Coordinates
version=1
nRows=27
nColumns=12
inDegrees=yes

Units are S.I. units (second, meters, Newtons, ...)
Angles are in degrees

endheader
time	SC_y	SC_z	SC_x	AC_y	AC_z	AC_x	GH_y	GH_z	GH_yy	EL_x	PS_y
       0.0               -58.8          10.73          72.73          34.52         -14.38           2.78           20.1          18.29          99.31          45.19           26.6
  0.004087               -58.8          10.73          72.72          34.52         -14.38          2.783          20.09           18.3          99.32           45.2          26.62
  0.008173               -58.8          10.73          72.71          34.53         -14.38          2.785          20.09          18.31          99.33          45.21          26.63
   0.01226              -58.79          10.72           72.7          34.53         -14.38          2.788          20.09          18.32          99.35          45.22          26.65
   0.01635              -58.79          10.72          72.68          34.53         -14.38           2.79          20.08          18.32          99.36          45.23          26.68
   0.02043              -58.78          10.72          72.67          34.54         -14.38          2.793          20.08          18.33          99.38          45.24           26.7
   0.02452              -58.78          10.72          72.66          34.54         -14.38          2.797          20.07          18.34          99.39          45.26          26.72
   0.02861              -58.77          10.72          72.64          34.54         -14.37            2.8          20.07          18.35          99.41          45.27          26.75
   0.03269              -58.76          10.72          72.63          34.55         -14.37          2.804          20.06          18.36          99.43          45.29          26.77
   0.03678              -58.76          10.72          72.61          34.55         -14.37          2.808          20.06          18.37          99.45           45.3           26.8
   0.04087              -58.75          10.72          72.59          34.56         -14.37          2.812          20.05          18.39          99.47          45.32          26.83
   0.04495              -58.74          10.71          72.57          34.56         -14.37          2.816          20.04           18.4          99.49          45.34          26.87
   0.04904              -58.73          10.71          72.55          34.57         -14.36          2.821          20.04          18.42          99.52          45.36          26.91
   0.05312              -58.72          10.71          72.53          34.57         -14.36          2.826          20.03          18.43          99.54          45.38          26.94
   0.05721              -58.71          10.71          72.51          34.58         -14.36          2.832          20.02          18.45          99.57           45.4          26.99
    0.0613               -58.7          10.71          72.48          34.59         -14.35          2.838          20.01          18.47           99.6          45.43          27.03
   0.06538              -58.69           10.7          72.45           34.6         -14.35          2.845           20.0          18.49          99.64          45.46          27.08
   0.06947              -58.68           10.7          72.42           34.6         -14.35          2.852          19.99          18.51          99.67          45.49          27.14
   0.07356              -58.67           10.7          72.39          34.61         -14.34           2.86          19.98          18.53          99.71          45.52           27.2
   0.07764              -58.65           10.7          72.35          34.62         -14.34          2.869          19.97          18.56          99.76          45.56          27.26
   0.08173              -58.63          10.69          72.31          34.63         -14.33          2.879          19.95          18.59          99.81           45.6          27.34
   0.08582              -58.62          10.69          72.27          34.65         -14.33          2.889          19.94          18.62          99.86          45.64          27.42
    0.0899               -58.6          10.68          72.22          34.66         -14.32          2.901          19.92          18.65          99.92          45.69           27.5
   0.09399              -58.57          10.68          72.16          34.67         -14.31          2.914           19.9          18.69          99.98          45.74           27.6
   0.09808              -58.55          10.68           72.1          34.69         -14.31          2.928          19.88          18.73          100.1           45.8          27.71
    0.1022              -58.52          10.67          72.03          34.71          -14.3          2.944          19.86          18.78          100.1          45.87          27.83
    0.1062              -58.49          10.66          71.96          34.73         -14.29          2.962          19.83          18.84          100.2          45.94          27.96
